<svg width="215" height="70" viewBox="0 0 215 70" fill="none" xmlns="http://www.w3.org/2000/svg">
<path d="M62.4513 54.176C60.4993 54.176 59.0273 53.856 58.0353 53.216C57.0433 52.576 56.5313 51.52 56.4993 50.048C56.4993 49.728 56.6753 49.568 57.0273 49.568C57.3153 49.568 57.7473 49.648 58.3233 49.808C58.9313 49.936 60.0673 50 61.7313 50C64.5473 50 67.1393 49.712 69.5073 49.136C71.8753 48.528 73.9233 47.728 75.6513 46.736C77.4113 45.712 78.7713 44.576 79.7313 43.328C80.6913 42.048 81.1713 40.72 81.1713 39.344C81.1713 38.096 80.7873 37.104 80.0193 36.368C79.2833 35.6 78.2913 35.024 77.0433 34.64C75.8273 34.224 74.4833 33.952 73.0113 33.824C71.5713 33.696 70.1473 33.632 68.7393 33.632C68.1313 33.632 67.5233 33.648 66.9153 33.68C66.3073 33.68 65.7313 33.68 65.1873 33.68C64.4833 36.112 63.7953 38.624 63.1233 41.216C62.4513 43.808 61.7473 46.352 61.0113 48.848C60.0513 48.848 59.2193 48.592 58.5153 48.08C57.8113 47.568 57.4593 46.944 57.4593 46.208C57.4593 45.92 57.5073 45.552 57.6033 45.104C57.7313 44.624 57.9073 44.064 58.1313 43.424C58.3233 42.816 58.6433 41.808 59.0913 40.4C59.5713 38.992 60.1313 37.328 60.7713 35.408C61.4113 33.488 62.1153 31.472 62.8833 29.36C63.6833 27.216 64.4993 25.12 65.3313 23.072C66.1953 21.024 67.0433 19.184 67.8753 17.552C66.5953 17.84 65.5393 18.176 64.7073 18.56C63.8753 18.944 63.2193 19.28 62.7393 19.568C62.2593 19.856 61.8913 20 61.6353 20C61.4433 20 61.1873 19.888 60.8672 19.664C60.5793 19.44 60.3073 19.184 60.0513 18.896C59.8273 18.608 59.7153 18.352 59.7153 18.128C61.4433 17.424 63.2353 16.8 65.0913 16.256C66.9473 15.712 69.1873 15.44 71.8113 15.44C72.9633 15.44 74.2273 15.536 75.6033 15.728C76.9793 15.888 78.2913 16.24 79.5393 16.784C80.7873 17.296 81.8113 18.08 82.6113 19.136C83.4433 20.16 83.8593 21.536 83.8593 23.264C83.8593 24.64 83.5553 25.84 82.9473 26.864C82.3713 27.856 81.5873 28.72 80.5953 29.456C79.6033 30.16 78.5153 30.752 77.3313 31.232C76.1473 31.68 74.9793 32.048 73.8273 32.336C75.8113 32.592 77.4593 33.008 78.7712 33.584C80.1153 34.128 81.1713 34.768 81.9393 35.504C82.7393 36.24 83.2993 37.008 83.6193 37.808C83.9713 38.576 84.1473 39.328 84.1473 40.064C84.1473 41.952 83.6513 43.648 82.6593 45.152C81.6673 46.656 80.3553 47.968 78.7233 49.088C77.1233 50.208 75.3473 51.136 73.3953 51.872C71.4753 52.64 69.5553 53.216 67.6353 53.6C65.7153 53.984 63.9873 54.176 62.4513 54.176ZM65.6673 31.856C67.4593 31.792 69.2193 31.584 70.9473 31.232C72.6753 30.88 74.2273 30.368 75.6033 29.696C77.0113 28.992 78.1313 28.096 78.9633 27.008C79.7953 25.888 80.2113 24.512 80.2113 22.88C80.2113 21.344 79.7953 20.16 78.9633 19.328C78.1313 18.496 77.0433 17.92 75.6993 17.6C74.3553 17.28 72.9153 17.12 71.3793 17.12C71.3473 17.12 71.3153 17.12 71.2833 17.12C71.2513 17.12 71.2193 17.12 71.1873 17.12C70.0993 19.264 69.1073 21.6 68.2113 24.128C67.3153 26.624 66.4673 29.2 65.6673 31.856ZM88.918 51.536C87.478 51.536 86.486 51.056 85.942 50.096C85.43 49.168 85.174 48.144 85.174 47.024C85.174 46 85.334 44.96 85.654 43.904C85.974 42.816 86.406 41.808 86.95 40.88C87.526 39.952 88.15 39.216 88.822 38.672C89.526 38.096 90.23 37.808 90.934 37.808C91.158 37.808 91.414 37.856 91.702 37.952C92.022 38.016 92.246 38.128 92.374 38.288C91.99 38.768 91.59 39.36 91.174 40.064C90.79 40.768 90.422 41.52 90.07 42.32C89.75 43.088 89.494 43.872 89.302 44.672C89.11 45.472 89.014 46.208 89.014 46.88C89.014 47.52 89.126 48.048 89.35 48.464C89.606 48.88 90.038 49.088 90.646 49.088C91.254 49.088 91.974 48.752 92.806 48.08C93.67 47.376 94.486 46.576 95.254 45.68C94.23 44.752 93.494 43.744 93.046 42.656C92.598 41.536 92.374 40.192 92.374 38.624C92.374 37.952 92.534 37.184 92.854 36.32C93.206 35.456 93.75 34.704 94.486 34.064C95.254 33.424 96.278 33.104 97.558 33.104C98.934 33.104 99.894 33.488 100.438 34.256C101.014 35.024 101.302 35.936 101.302 36.992C101.302 38.176 100.982 39.504 100.342 40.976C99.734 42.448 98.998 43.84 98.134 45.152C98.518 45.344 98.966 45.44 99.478 45.44C99.958 45.44 100.534 45.328 101.206 45.104C101.878 44.88 102.534 44.512 103.174 44C103.814 43.456 104.326 42.736 104.71 41.84L105.574 42.464C104.87 44.096 103.926 45.296 102.742 46.064C101.59 46.8 100.454 47.168 99.334 47.168C98.918 47.168 98.502 47.136 98.086 47.072C97.67 46.976 97.286 46.864 96.934 46.736C95.846 48.016 94.598 49.136 93.19 50.096C91.782 51.056 90.358 51.536 88.918 51.536ZM96.502 44.144C97.27 43.024 97.926 41.824 98.47 40.544C99.014 39.264 99.286 38.08 99.286 36.992C99.286 36.256 99.174 35.728 98.95 35.408C98.726 35.056 98.39 34.88 97.942 34.88C97.334 34.88 96.71 35.312 96.07 36.176C95.43 37.04 95.11 38.128 95.11 39.44C95.11 40.112 95.222 40.928 95.446 41.888C95.702 42.848 96.054 43.6 96.502 44.144ZM106.777 51.536C105.337 51.536 104.345 51.056 103.801 50.096C103.289 49.168 103.033 48.144 103.033 47.024C103.033 46 103.193 44.96 103.513 43.904C103.833 42.816 104.265 41.808 104.809 40.88C105.385 39.952 106.009 39.216 106.681 38.672C107.385 38.096 108.089 37.808 108.793 37.808C109.017 37.808 109.273 37.856 109.561 37.952C109.881 38.016 110.105 38.128 110.233 38.288C109.849 38.768 109.449 39.36 109.033 40.064C108.649 40.768 108.281 41.52 107.929 42.32C107.609 43.088 107.353 43.872 107.161 44.672C106.969 45.472 106.873 46.208 106.873 46.88C106.873 47.52 106.985 48.048 107.209 48.464C107.465 48.88 107.897 49.088 108.505 49.088C109.113 49.088 109.833 48.752 110.665 48.08C111.529 47.376 112.345 46.576 113.113 45.68C112.089 44.752 111.353 43.744 110.905 42.656C110.457 41.536 110.233 40.192 110.233 38.624C110.233 37.952 110.393 37.184 110.713 36.32C111.065 35.456 111.609 34.704 112.345 34.064C113.113 33.424 114.137 33.104 115.417 33.104C116.793 33.104 117.753 33.488 118.297 34.256C118.873 35.024 119.161 35.936 119.161 36.992C119.161 38.176 118.841 39.504 118.201 40.976C117.593 42.448 116.857 43.84 115.993 45.152C116.377 45.344 116.825 45.44 117.337 45.44C117.817 45.44 118.393 45.328 119.065 45.104C119.737 44.88 120.393 44.512 121.033 44C121.673 43.456 122.185 42.736 122.569 41.84L123.433 42.464C122.729 44.096 121.785 45.296 120.601 46.064C119.449 46.8 118.313 47.168 117.193 47.168C116.777 47.168 116.361 47.136 115.945 47.072C115.529 46.976 115.145 46.864 114.793 46.736C113.705 48.016 112.457 49.136 111.049 50.096C109.641 51.056 108.217 51.536 106.777 51.536ZM114.361 44.144C115.129 43.024 115.785 41.824 116.329 40.544C116.873 39.264 117.145 38.08 117.145 36.992C117.145 36.256 117.033 35.728 116.809 35.408C116.585 35.056 116.249 34.88 115.801 34.88C115.193 34.88 114.569 35.312 113.929 36.176C113.289 37.04 112.969 38.128 112.969 39.44C112.969 40.112 113.081 40.928 113.305 41.888C113.561 42.848 113.913 43.6 114.361 44.144ZM136.685 51.824C135.693 51.824 134.829 51.504 134.093 50.864C133.357 50.224 132.765 49.424 132.317 48.464C131.869 47.504 131.533 46.528 131.309 45.536C131.085 44.512 130.973 43.632 130.973 42.896C131.421 42.8 131.981 42.656 132.653 42.464C133.325 42.272 134.013 42.016 134.717 41.696C135.421 41.344 135.997 40.928 136.445 40.448C136.925 39.936 137.165 39.328 137.165 38.624C137.165 38.048 136.973 37.584 136.589 37.232C136.237 36.88 135.725 36.704 135.053 36.704C134.157 36.704 133.309 37.008 132.509 37.616C131.709 38.192 130.957 38.96 130.253 39.92C129.581 40.88 128.957 41.92 128.381 43.04C127.837 44.16 127.341 45.248 126.893 46.304C126.477 47.36 126.125 48.272 125.837 49.04C125.485 50 125.149 50.64 124.829 50.96C124.509 51.312 124.045 51.488 123.437 51.488C123.213 51.488 122.941 51.424 122.621 51.296C122.333 51.168 122.077 50.848 121.853 50.336C121.661 49.824 121.565 49.008 121.565 47.888C121.565 45.936 121.837 43.792 122.381 41.456C122.925 39.12 123.645 36.752 124.541 34.352C125.469 31.92 126.477 29.6 127.565 27.392C128.653 25.184 129.757 23.2 130.877 21.44C131.997 19.68 133.037 18.288 133.997 17.264C134.989 16.24 135.805 15.728 136.445 15.728C136.989 15.728 137.437 16.064 137.789 16.736C138.173 17.376 138.365 18.208 138.365 19.232C138.365 20.32 138.125 21.536 137.645 22.88C137.165 24.192 136.477 25.536 135.581 26.912C134.717 28.256 133.677 29.536 132.461 30.752C131.245 31.968 129.901 33.008 128.429 33.872C127.533 35.952 126.845 38.016 126.365 40.064C125.885 42.08 125.581 43.872 125.453 45.44C126.029 44.128 126.685 42.784 127.421 41.408C128.157 40.032 128.973 38.752 129.869 37.568C130.765 36.352 131.725 35.376 132.749 34.64C133.805 33.904 134.925 33.536 136.109 33.536C137.389 33.536 138.509 33.984 139.469 34.88C140.429 35.776 140.909 36.896 140.909 38.24C140.909 39.2 140.653 40.032 140.141 40.736C139.629 41.44 138.989 42.032 138.221 42.512C137.485 42.96 136.733 43.296 135.965 43.52C135.197 43.744 134.541 43.872 133.997 43.904C134.093 44.32 134.221 44.848 134.381 45.488C134.573 46.128 134.813 46.752 135.101 47.36C135.389 47.968 135.757 48.48 136.205 48.896C136.653 49.312 137.181 49.52 137.789 49.52C138.589 49.52 139.405 49.152 140.237 48.416C141.101 47.68 141.933 46.704 142.733 45.488C143.565 44.272 144.301 42.928 144.941 41.456L145.613 42.272C145.069 43.872 144.317 45.408 143.357 46.88C142.429 48.352 141.389 49.536 140.237 50.432C139.085 51.36 137.901 51.824 136.685 51.824ZM129.821 30.608C130.685 29.84 131.597 28.896 132.557 27.776C133.517 26.624 134.333 25.408 135.005 24.128C135.709 22.816 136.077 21.568 136.109 20.384C136.109 20.352 136.109 20.336 136.109 20.336C136.109 20.304 136.109 20.272 136.109 20.24C135.789 20.368 135.277 20.928 134.573 21.92C133.901 22.88 133.149 24.112 132.317 25.616C131.485 27.12 130.653 28.784 129.821 30.608ZM149.257 52.448C147.657 52.448 146.361 52.112 145.369 51.44C144.409 50.8 143.721 49.984 143.305 48.992C142.889 47.968 142.681 46.928 142.681 45.872C142.681 44.944 142.809 44.224 143.065 43.712C143.321 43.2 143.641 42.832 144.025 42.608C144.409 42.352 144.761 42.16 145.081 42.032C145.433 41.904 145.689 41.76 145.849 41.6C146.649 40.768 147.465 39.808 148.297 38.72C149.161 37.6 149.897 36.368 150.505 35.024V34.544C150.505 33.264 150.713 32.368 151.129 31.856C151.577 31.312 152.089 31.04 152.665 31.04C153.049 31.04 153.321 31.136 153.481 31.328C153.673 31.52 153.785 31.744 153.817 32C153.817 32.192 153.769 32.416 153.673 32.672C153.609 32.928 153.577 33.28 153.577 33.728C153.577 34.688 153.801 35.792 154.249 37.04C154.729 38.256 155.193 39.552 155.641 40.928C156.121 42.304 156.361 43.712 156.361 45.152C156.361 45.536 156.345 45.888 156.313 46.208C156.281 46.528 156.233 46.832 156.169 47.12C157.161 46.864 158.137 46.32 159.097 45.488C160.057 44.624 160.969 43.36 161.833 41.696L162.409 42.128C161.801 43.952 160.921 45.424 159.769 46.544C158.617 47.632 157.273 48.304 155.737 48.56C155.225 49.872 154.377 50.848 153.193 51.488C152.041 52.128 150.729 52.448 149.257 52.448ZM148.921 50.336C149.561 50.336 150.153 50.176 150.697 49.856C151.241 49.536 151.673 49.072 151.993 48.464C150.681 48.176 149.497 47.664 148.441 46.928C147.385 46.192 146.569 45.44 145.993 44.672C145.545 44.768 145.321 45.2 145.321 45.968C145.321 47.024 145.625 48.016 146.233 48.944C146.841 49.872 147.737 50.336 148.921 50.336ZM152.377 47.024C152.441 46.8 152.473 46.544 152.473 46.256C152.505 45.936 152.521 45.696 152.521 45.536C152.489 44.096 152.297 42.672 151.945 41.264C151.593 39.856 151.241 38.416 150.889 36.944C150.313 37.936 149.641 39.008 148.873 40.16C148.105 41.312 147.385 42.24 146.713 42.944C147.225 43.808 147.977 44.624 148.969 45.392C149.961 46.16 151.097 46.704 152.377 47.024Z" fill="white"/>
</svg>
